<?xml version="1.0" standalone="no"?>
<!DOCTYPE svg PUBLIC "-//W3C//DTD SVG 20010904//EN"
 "http://www.w3.org/TR/2001/REC-SVG-20010904/DTD/svg10.dtd">
<svg version="1.0" xmlns="http://www.w3.org/2000/svg"
 width="500.000000pt" height="500.000000pt" viewBox="0 0 500.000000 500.000000"
 preserveAspectRatio="xMidYMid meet">

<g transform="translate(0.000000,500.000000) scale(0.100000,-0.100000)"
fill="#000000" stroke="none">
<path d="M3331 4460 c-24 -11 -65 -36 -91 -54 -26 -19 -67 -43 -93 -54 -112
-50 -182 -154 -196 -291 -5 -45 -10 -83 -12 -85 -2 -1 -64 -26 -138 -55 -242
-95 -369 -158 -544 -266 -94 -59 -209 -130 -255 -159 -92 -56 -348 -245 -445
-328 -261 -222 -443 -423 -487 -538 -8 -19 -26 -53 -41 -75 -42 -63 -61 -115
-61 -170 -1 -72 35 -131 111 -186 65 -46 118 -60 266 -70 116 -8 154 -15 225
-40 51 -18 139 -38 220 -50 74 -11 153 -24 175 -30 131 -36 319 -155 438 -278
89 -92 107 -129 93 -186 -7 -27 -90 -94 -177 -143 -45 -25 -49 -30 -49 -64 0
-34 -4 -39 -82 -89 -97 -62 -255 -147 -296 -159 -17 -4 -35 -4 -43 1 -21 14 7
31 115 74 139 53 211 125 157 155 -37 19 -77 9 -281 -71 -113 -44 -313 -123
-445 -174 -374 -146 -434 -177 -461 -241 -35 -84 51 -136 274 -163 75 -10 96
-8 199 14 177 39 264 65 468 142 214 82 584 269 788 400 37 24 69 43 72 43 3
0 71 56 151 124 89 77 157 143 176 173 45 71 77 107 82 91 2 -7 14 -71 26
-143 12 -71 27 -137 34 -145 33 -37 56 -101 56 -155 0 -69 32 -136 89 -188 65
-59 96 -51 199 47 65 61 112 127 112 155 0 11 -16 56 -35 101 -37 82 -67 188
-80 274 l-8 49 28 -7 c15 -4 84 -7 154 -7 112 -1 137 2 206 26 46 15 97 41
121 60 52 43 85 106 75 143 -12 45 -49 56 -231 63 -166 7 -338 25 -359 38 -19
12 -50 151 -61 271 -26 288 -29 1230 -5 1377 5 30 12 34 148 91 78 33 177 74
220 91 43 18 95 40 116 50 79 41 161 160 177 257 9 57 -27 98 -104 120 -101
30 -328 7 -529 -52 -22 -6 -23 -4 -23 62 -1 121 -16 196 -45 222 -32 27 -38
27 -94 2z m-707 -981 c-10 -12 -77 -60 -149 -106 -209 -137 -260 -187 -236
-232 33 -60 179 -16 499 150 87 45 152 74 152 66 3 -61 30 -240 39 -251 6 -8
24 -19 40 -26 24 -9 33 -26 60 -103 28 -82 31 -104 31 -203 0 -111 27 -633 34
-666 2 -10 -2 -18 -9 -18 -7 0 -82 34 -166 76 -253 126 -511 237 -749 324
-303 110 -423 198 -406 298 18 112 272 361 597 585 128 88 203 127 247 127 35
0 35 0 16 -21z"/>
</g>
</svg>
